<mxfile host="app.diagrams.net" agent="Mozilla/5.0 (Macintosh; Intel Mac OS X 10_15_7) AppleWebKit/537.36 (KHTML, like Gecko) Chrome/132.0.0.0 Safari/537.36" version="26.0.11">
  <diagram name="Page-1" id="Hk01fdB4jkvvHZxyG3Y6">
    <mxGraphModel dx="1224" dy="814" grid="1" gridSize="10" guides="1" tooltips="1" connect="1" arrows="1" fold="1" page="1" pageScale="1" pageWidth="850" pageHeight="1100" math="0" shadow="0">
      <root>
        <mxCell id="0" />
        <mxCell id="1" parent="0" />
        <mxCell id="A2Ggw8hq1gjowvri7o_E-24" style="edgeStyle=orthogonalEdgeStyle;rounded=1;orthogonalLoop=1;jettySize=auto;html=1;curved=0;" parent="1" source="A2Ggw8hq1gjowvri7o_E-1" target="KmJyJUYLlWiR-0wFwNjL-4" edge="1">
          <mxGeometry relative="1" as="geometry">
            <mxPoint x="280" y="200" as="targetPoint" />
            <Array as="points">
              <mxPoint x="280" y="200" />
              <mxPoint x="280" y="280" />
            </Array>
          </mxGeometry>
        </mxCell>
        <mxCell id="A2Ggw8hq1gjowvri7o_E-1" value="Student" style="sketch=0;outlineConnect=0;fontColor=#232F3E;gradientColor=none;fillColor=#232F3D;strokeColor=none;dashed=0;verticalLabelPosition=bottom;verticalAlign=top;align=center;html=1;fontSize=12;fontStyle=0;aspect=fixed;pointerEvents=1;shape=mxgraph.aws4.user;" parent="1" vertex="1">
          <mxGeometry x="160" y="160" width="80" height="80" as="geometry" />
        </mxCell>
        <mxCell id="A2Ggw8hq1gjowvri7o_E-2" value="Teacher" style="sketch=0;outlineConnect=0;fontColor=#232F3E;gradientColor=none;fillColor=#232F3D;strokeColor=none;dashed=0;verticalLabelPosition=bottom;verticalAlign=top;align=center;html=1;fontSize=12;fontStyle=0;aspect=fixed;pointerEvents=1;shape=mxgraph.aws4.user;" parent="1" vertex="1">
          <mxGeometry x="160" y="320" width="80" height="80" as="geometry" />
        </mxCell>
        <mxCell id="KmJyJUYLlWiR-0wFwNjL-2" value="AWS Cloud" style="points=[[0,0],[0.25,0],[0.5,0],[0.75,0],[1,0],[1,0.25],[1,0.5],[1,0.75],[1,1],[0.75,1],[0.5,1],[0.25,1],[0,1],[0,0.75],[0,0.5],[0,0.25]];outlineConnect=0;gradientColor=none;html=1;whiteSpace=wrap;fontSize=12;fontStyle=0;container=1;pointerEvents=0;collapsible=0;recursiveResize=0;shape=mxgraph.aws4.group;grIcon=mxgraph.aws4.group_aws_cloud_alt;strokeColor=#232F3E;fillColor=none;verticalAlign=top;align=left;spacingLeft=30;fontColor=#232F3E;dashed=0;" parent="1" vertex="1">
          <mxGeometry x="320" y="80" width="760" height="400" as="geometry" />
        </mxCell>
        <mxCell id="KmJyJUYLlWiR-0wFwNjL-10" style="edgeStyle=orthogonalEdgeStyle;rounded=1;orthogonalLoop=1;jettySize=auto;html=1;curved=0;" parent="KmJyJUYLlWiR-0wFwNjL-2" source="KmJyJUYLlWiR-0wFwNjL-3" target="KmJyJUYLlWiR-0wFwNjL-8" edge="1">
          <mxGeometry relative="1" as="geometry">
            <Array as="points">
              <mxPoint x="320" y="80" />
              <mxPoint x="320" y="80" />
            </Array>
          </mxGeometry>
        </mxCell>
        <mxCell id="KmJyJUYLlWiR-0wFwNjL-13" style="edgeStyle=orthogonalEdgeStyle;rounded=1;orthogonalLoop=1;jettySize=auto;html=1;curved=0;" parent="KmJyJUYLlWiR-0wFwNjL-2" source="KmJyJUYLlWiR-0wFwNjL-3" target="KmJyJUYLlWiR-0wFwNjL-5" edge="1">
          <mxGeometry relative="1" as="geometry">
            <Array as="points">
              <mxPoint x="400" y="80" />
              <mxPoint x="400" y="200" />
            </Array>
          </mxGeometry>
        </mxCell>
        <mxCell id="KmJyJUYLlWiR-0wFwNjL-3" value="Backend" style="sketch=0;points=[[0,0,0],[0.25,0,0],[0.5,0,0],[0.75,0,0],[1,0,0],[0,1,0],[0.25,1,0],[0.5,1,0],[0.75,1,0],[1,1,0],[0,0.25,0],[0,0.5,0],[0,0.75,0],[1,0.25,0],[1,0.5,0],[1,0.75,0]];outlineConnect=0;fontColor=#232F3E;fillColor=#ED7100;strokeColor=#ffffff;dashed=0;verticalLabelPosition=bottom;verticalAlign=top;align=center;html=1;fontSize=12;fontStyle=0;aspect=fixed;shape=mxgraph.aws4.resourceIcon;resIcon=mxgraph.aws4.compute;" parent="KmJyJUYLlWiR-0wFwNjL-2" vertex="1">
          <mxGeometry x="200" y="40" width="80" height="80" as="geometry" />
        </mxCell>
        <mxCell id="KmJyJUYLlWiR-0wFwNjL-7" style="edgeStyle=orthogonalEdgeStyle;rounded=1;orthogonalLoop=1;jettySize=auto;html=1;curved=0;" parent="KmJyJUYLlWiR-0wFwNjL-2" source="KmJyJUYLlWiR-0wFwNjL-4" target="KmJyJUYLlWiR-0wFwNjL-3" edge="1">
          <mxGeometry relative="1" as="geometry">
            <Array as="points">
              <mxPoint x="80" y="80" />
            </Array>
          </mxGeometry>
        </mxCell>
        <mxCell id="KmJyJUYLlWiR-0wFwNjL-4" value="Frontend" style="sketch=0;points=[[0,0,0],[0.25,0,0],[0.5,0,0],[0.75,0,0],[1,0,0],[0,1,0],[0.25,1,0],[0.5,1,0],[0.75,1,0],[1,1,0],[0,0.25,0],[0,0.5,0],[0,0.75,0],[1,0.25,0],[1,0.5,0],[1,0.75,0]];outlineConnect=0;fontColor=#232F3E;fillColor=#DD344C;strokeColor=#ffffff;dashed=0;verticalLabelPosition=bottom;verticalAlign=top;align=center;html=1;fontSize=12;fontStyle=0;aspect=fixed;shape=mxgraph.aws4.resourceIcon;resIcon=mxgraph.aws4.amplify;" parent="KmJyJUYLlWiR-0wFwNjL-2" vertex="1">
          <mxGeometry x="40" y="160" width="80" height="80" as="geometry" />
        </mxCell>
        <mxCell id="KmJyJUYLlWiR-0wFwNjL-5" value="Database" style="sketch=0;points=[[0,0,0],[0.25,0,0],[0.5,0,0],[0.75,0,0],[1,0,0],[0,1,0],[0.25,1,0],[0.5,1,0],[0.75,1,0],[1,1,0],[0,0.25,0],[0,0.5,0],[0,0.75,0],[1,0.25,0],[1,0.5,0],[1,0.75,0]];outlineConnect=0;fontColor=#232F3E;fillColor=#C925D1;strokeColor=#ffffff;dashed=0;verticalLabelPosition=bottom;verticalAlign=top;align=center;html=1;fontSize=12;fontStyle=0;aspect=fixed;shape=mxgraph.aws4.resourceIcon;resIcon=mxgraph.aws4.database;" parent="KmJyJUYLlWiR-0wFwNjL-2" vertex="1">
          <mxGeometry x="440" y="159" width="81" height="81" as="geometry" />
        </mxCell>
        <mxCell id="KmJyJUYLlWiR-0wFwNjL-8" value="AI" style="sketch=0;points=[[0,0,0],[0.25,0,0],[0.5,0,0],[0.75,0,0],[1,0,0],[0,1,0],[0.25,1,0],[0.5,1,0],[0.75,1,0],[1,1,0],[0,0.25,0],[0,0.5,0],[0,0.75,0],[1,0.25,0],[1,0.5,0],[1,0.75,0]];outlineConnect=0;fontColor=#232F3E;fillColor=#01A88D;strokeColor=#ffffff;dashed=0;verticalLabelPosition=bottom;verticalAlign=top;align=center;html=1;fontSize=12;fontStyle=0;aspect=fixed;shape=mxgraph.aws4.resourceIcon;resIcon=mxgraph.aws4.bedrock;" parent="KmJyJUYLlWiR-0wFwNjL-2" vertex="1">
          <mxGeometry x="440" y="40" width="80" height="80" as="geometry" />
        </mxCell>
        <mxCell id="KmJyJUYLlWiR-0wFwNjL-14" value="Storage" style="sketch=0;points=[[0,0,0],[0.25,0,0],[0.5,0,0],[0.75,0,0],[1,0,0],[0,1,0],[0.25,1,0],[0.5,1,0],[0.75,1,0],[1,1,0],[0,0.25,0],[0,0.5,0],[0,0.75,0],[1,0.25,0],[1,0.5,0],[1,0.75,0]];outlineConnect=0;fontColor=#232F3E;fillColor=#7AA116;strokeColor=#ffffff;dashed=0;verticalLabelPosition=bottom;verticalAlign=top;align=center;html=1;fontSize=12;fontStyle=0;aspect=fixed;shape=mxgraph.aws4.resourceIcon;resIcon=mxgraph.aws4.s3;" parent="KmJyJUYLlWiR-0wFwNjL-2" vertex="1">
          <mxGeometry x="440" y="280" width="80" height="80" as="geometry" />
        </mxCell>
        <mxCell id="KmJyJUYLlWiR-0wFwNjL-15" style="edgeStyle=orthogonalEdgeStyle;rounded=1;orthogonalLoop=1;jettySize=auto;html=1;entryX=0;entryY=0.5;entryDx=0;entryDy=0;entryPerimeter=0;curved=0;" parent="KmJyJUYLlWiR-0wFwNjL-2" source="KmJyJUYLlWiR-0wFwNjL-3" target="KmJyJUYLlWiR-0wFwNjL-14" edge="1">
          <mxGeometry relative="1" as="geometry">
            <Array as="points">
              <mxPoint x="400" y="80" />
              <mxPoint x="400" y="320" />
            </Array>
          </mxGeometry>
        </mxCell>
        <mxCell id="A2Ggw8hq1gjowvri7o_E-20" value="- Writing Practicing&lt;br&gt;- Text Adventure Immersion Game&lt;br&gt;- Light Visual Novel Immersion Reading&lt;br&gt;- Sentence Constructor&lt;br&gt;- Visual Flashcard Vocab&lt;br&gt;- Speak to Learn" style="text;align=left;verticalAlign=middle;resizable=0;points=[];autosize=1;strokeColor=none;fillColor=none;spacing=2;html=1;" parent="KmJyJUYLlWiR-0wFwNjL-2" vertex="1">
          <mxGeometry x="140" y="150" width="230" height="100" as="geometry" />
        </mxCell>
        <mxCell id="KmJyJUYLlWiR-0wFwNjL-17" value="" style="shape=curlyBracket;whiteSpace=wrap;html=1;rounded=1;labelPosition=left;verticalLabelPosition=middle;align=right;verticalAlign=middle;" parent="KmJyJUYLlWiR-0wFwNjL-2" vertex="1">
          <mxGeometry x="120" y="150" width="20" height="100" as="geometry" />
        </mxCell>
        <mxCell id="KmJyJUYLlWiR-0wFwNjL-18" value="- Personalized Language E&lt;span style=&quot;background-color: transparent; color: light-dark(rgb(0, 0, 0), rgb(255, 255, 255));&quot;&gt;xercises&lt;/span&gt;&lt;div&gt;- Grammar Correction&lt;br&gt;&lt;div&gt;&lt;div&gt;- Text to Speech&lt;/div&gt;&lt;/div&gt;&lt;div&gt;- Speech to Text&lt;/div&gt;&lt;div&gt;- Text to Image&lt;/div&gt;&lt;/div&gt;" style="text;align=left;verticalAlign=middle;resizable=0;points=[];autosize=1;strokeColor=none;fillColor=none;spacing=2;html=1;" parent="KmJyJUYLlWiR-0wFwNjL-2" vertex="1">
          <mxGeometry x="541" y="35" width="210" height="90" as="geometry" />
        </mxCell>
        <mxCell id="KmJyJUYLlWiR-0wFwNjL-19" value="" style="shape=curlyBracket;whiteSpace=wrap;html=1;rounded=1;labelPosition=left;verticalLabelPosition=middle;align=right;verticalAlign=middle;" parent="KmJyJUYLlWiR-0wFwNjL-2" vertex="1">
          <mxGeometry x="521" y="40" width="20" height="80" as="geometry" />
        </mxCell>
        <mxCell id="KmJyJUYLlWiR-0wFwNjL-20" value="- Progress&lt;div&gt;- Lessons&lt;/div&gt;&lt;div&gt;- Core 2000 Words&lt;/div&gt;" style="text;align=left;verticalAlign=middle;resizable=0;points=[];autosize=1;strokeColor=none;fillColor=none;spacing=2;html=1;" parent="KmJyJUYLlWiR-0wFwNjL-2" vertex="1">
          <mxGeometry x="541" y="169.5" width="120" height="60" as="geometry" />
        </mxCell>
        <mxCell id="KmJyJUYLlWiR-0wFwNjL-21" value="" style="shape=curlyBracket;whiteSpace=wrap;html=1;rounded=1;labelPosition=left;verticalLabelPosition=middle;align=right;verticalAlign=middle;" parent="KmJyJUYLlWiR-0wFwNjL-2" vertex="1">
          <mxGeometry x="521" y="170" width="20" height="59" as="geometry" />
        </mxCell>
        <mxCell id="KmJyJUYLlWiR-0wFwNjL-22" value="- Images&lt;div&gt;- Audios&lt;/div&gt;" style="text;align=left;verticalAlign=middle;resizable=0;points=[];autosize=1;strokeColor=none;fillColor=none;spacing=2;html=1;" parent="KmJyJUYLlWiR-0wFwNjL-2" vertex="1">
          <mxGeometry x="541" y="300" width="70" height="40" as="geometry" />
        </mxCell>
        <mxCell id="KmJyJUYLlWiR-0wFwNjL-23" value="" style="shape=curlyBracket;whiteSpace=wrap;html=1;rounded=1;labelPosition=left;verticalLabelPosition=middle;align=right;verticalAlign=middle;" parent="KmJyJUYLlWiR-0wFwNjL-2" vertex="1">
          <mxGeometry x="521" y="300" width="20" height="40" as="geometry" />
        </mxCell>
        <mxCell id="KmJyJUYLlWiR-0wFwNjL-6" style="edgeStyle=orthogonalEdgeStyle;rounded=1;orthogonalLoop=1;jettySize=auto;html=1;entryX=0;entryY=0.5;entryDx=0;entryDy=0;entryPerimeter=0;curved=0;" parent="1" source="A2Ggw8hq1gjowvri7o_E-2" target="KmJyJUYLlWiR-0wFwNjL-4" edge="1">
          <mxGeometry relative="1" as="geometry">
            <Array as="points">
              <mxPoint x="280" y="359" />
              <mxPoint x="280" y="280" />
            </Array>
          </mxGeometry>
        </mxCell>
      </root>
    </mxGraphModel>
  </diagram>
</mxfile>
